# xmcd CD database file
#
# Track frame offsets:
#	150
#	28993
#	60812
#	89486
#	124998
#	152013
#
# Disc length: 2909 seconds
#
# Revision: 1
# Processed by: cddbd v1.5.2PL0 Copyright (c) Steve Scherf et al.
# Submitted via: CDex 1.70beta2
#
DISCID=470b5b06
DTITLE=Karunesh - Heart Chakra Meditation
DYEAR=1992
DGENRE=New Age
TTITLE0=Phase "North" 
TTITLE1=Phase "East and West" 
TTITLE2=Phase "South"
TTITLE3=Phase "Circle"
TTITLE4=The Inner Temple
TTITLE5=Tibetan Sound Bowls
EXTD=YEAR: 1992
EXTT0=
EXTT1=
EXTT2=
EXTT3=
EXTT4=
EXTT5=
PLAYORDER=
